<svg xmlns="http://www.w3.org/2000/svg" viewBox="0 0 41.77 26.46"><defs><style>.cls-1{isolation:isolate;}.cls-2{fill:#33173c;}</style></defs><title>behance</title><g id="Camada_2" data-name="Camada 2"><g id="Retângulo_1" data-name="Retângulo 1" class="cls-1"><path class="cls-2" d="M16.86,11.83s4-.29,4-4.93S17.58,0,13.48,0H0V25.91H13.48s8.23.26,8.23-7.65C21.71,18.26,22.07,11.83,16.86,11.83ZM5.94,4.6h7.54s1.83,0,1.83,2.69-1.08,3.09-2.3,3.09H5.94Zm7.19,16.7H5.94V14.38h7.54s2.73,0,2.73,3.56C16.21,20.93,14.21,21.27,13.13,21.3Z"/><rect class="cls-2" x="27.11" y="1.53" width="10.69" height="3.19"/><path class="cls-2" d="M32.68,6.59c-10,0-10,10-10,10s-.68,9.9,10,9.9c0,0,8.86.51,8.86-6.89H37s.15,2.79-4.15,2.79a4.21,4.21,0,0,1-4.56-4.51H41.7S43.17,6.59,32.68,6.59Zm4.05,7.79H28.23s.56-4,4.56-4S36.74,14.38,36.74,14.38Z"/></g></g></svg>