<svg id="Camada_1" data-name="Camada 1" xmlns="http://www.w3.org/2000/svg" viewBox="0 0 483.5 502.539">
  <defs>
    <style>
      .cls-1 {
        fill: none;
      }

      .cls-1, .cls-3 {
        stroke: #d1d0d2;
        stroke-miterlimit: 10;
        stroke-width: 2px;
      }

      .cls-2, .cls-3 {
        fill: #ecebe3;
      }

      .cls-4 {
        fill: #33173c;
      }
    </style>
  </defs>
  <title>logo gvb</title>
  <g>
    <g>
      <line class="cls-1" x1="1.5" y1="376.65" x2="1.5" y2="126.65"/>
      <line class="cls-2" x1="1.5" y1="376.65" x2="1.5" y2="126.65"/>
    </g>
    <polyline class="cls-3" points="241.5 1.65 1.5 126.65 241.5 1.65 240.5 501.65"/>
    <polyline class="cls-3" points="482.5 127.65 243.5 2.65 1 126.15 1 376.15 240 501.15 482 376.15"/>
    <polyline class="cls-3" points="482.5 127.65 482.482 132.15 481.5 377.65 481.5 125.298 481.5 377.65 240.5 501.65"/>
    <path class="cls-3" d="M444.5,465.5l239,125Z" transform="translate(-443 -88.85)"/>
  </g>
  <g>
    <path class="cls-4" d="M603.566,368.863q-5.333,8.306-18.508,15.278t-34.2,6.973q-25.84,0-42.759-17.124t-16.919-44.3V298.932q0-27.171,16.3-44.3t42.041-17.124q24.917,0,39.375,13.279t14.048,33.787l-.205.615h-19.38q0-13.636-8.818-22.712t-25.02-9.075q-17.125,0-27.583,12.817t-10.459,32.5v30.967q0,19.894,11.074,32.761t28.3,12.869q13.228,0,20.969-3.435t11.536-8.152V330.1H549.528V314.313h54.038Z" transform="translate(-443 -88.85)"/>
    <path class="cls-4" d="M683.752,349.791l3.384,12.407h.615l3.384-12.407,38.555-110.127h21.84l-55.473,149.3H678.728l-55.474-149.3H645.2Z" transform="translate(-443 -88.85)"/>
    <path class="cls-4" d="M771.217,388.961v-149.3h48.706q23.379,0,36.606,10.1t13.228,30.3a27.4,27.4,0,0,1-5.947,17.278,37.339,37.339,0,0,1-15.791,11.638q14.662,2.052,23.226,12.715a38.928,38.928,0,0,1,8.562,25.122q0,20.509-13.33,31.325t-36.094,10.818Zm20.2-85.825h32.71q11.278,0,18.354-6.2t7.075-17.278q0-12.1-7.639-18.1t-22-6H791.417Zm0,15.791V373.17h38.965q13.843,0,21.481-6.819t7.64-19.329q0-12.406-7.793-20t-21.021-8.1H791.417Z" transform="translate(-443 -88.85)"/>
  </g>
  <g>
    <path class="cls-4" d="M617.512,462.277V430.285h10.063a13.158,13.158,0,0,1,13.887,13.82v4.373a13.125,13.125,0,0,1-13.887,13.8Zm4.329-28.586v25.2h5.735a8.819,8.819,0,0,0,7-2.923,10.953,10.953,0,0,0,2.56-7.492v-4.416a10.893,10.893,0,0,0-2.56-7.449,8.822,8.822,0,0,0-7-2.922Z" transform="translate(-443 -88.85)"/>
    <path class="cls-4" d="M657.238,462.738a10.057,10.057,0,0,1-7.987-3.273,12.6,12.6,0,0,1-2.868-8.613v-.967a12.334,12.334,0,0,1,2.956-8.471,9.268,9.268,0,0,1,7.218-3.351q4.768,0,7.152,2.966a12.227,12.227,0,0,1,2.384,7.889V451.2H650.888l-.066.109a9.826,9.826,0,0,0,1.582,5.813,5.529,5.529,0,0,0,4.834,2.23,10.876,10.876,0,0,0,3.856-.627A8.6,8.6,0,0,0,663.94,457l1.692,2.813a10.4,10.4,0,0,1-3.362,2.076A13.383,13.383,0,0,1,657.238,462.738Zm-.681-21.27a4.706,4.706,0,0,0-3.746,1.747A8.263,8.263,0,0,0,651,447.688l.044.109h10.723v-.352a6.922,6.922,0,0,0-1.274-4.284A4.606,4.606,0,0,0,656.557,441.469Z" transform="translate(-443 -88.85)"/>
    <path class="cls-4" d="M684.77,455.883a2.883,2.883,0,0,0-1.087-2.328,10.462,10.462,0,0,0-4.12-1.582,17.3,17.3,0,0,1-6.449-2.527,5.1,5.1,0,0,1-2.252-4.351,6.268,6.268,0,0,1,2.472-4.966,10.908,10.908,0,0,1,12.953.132,6.3,6.3,0,0,1,2.395,5.12l-.044.131h-4.131a3.742,3.742,0,0,0-1.351-2.79,4.829,4.829,0,0,0-3.417-1.253,4.924,4.924,0,0,0-3.417,1.033,3.221,3.221,0,0,0-1.132,2.461,2.609,2.609,0,0,0,.978,2.176,10.86,10.86,0,0,0,4.032,1.406,17.036,17.036,0,0,1,6.635,2.614,5.266,5.266,0,0,1,2.264,4.417,6.258,6.258,0,0,1-2.561,5.163,10.556,10.556,0,0,1-6.69,2,10.448,10.448,0,0,1-7.163-2.307,6.583,6.583,0,0,1-2.483-5.383l.044-.133h4.131a4,4,0,0,0,1.714,3.373,6.628,6.628,0,0,0,3.757,1.066,5.915,5.915,0,0,0,3.614-.979A2.989,2.989,0,0,0,684.77,455.883Z" transform="translate(-443 -88.85)"/>
    <path class="cls-4" d="M699.162,432.416h-4.329V428h4.329Zm0,29.861h-4.329V438.5h4.329Z" transform="translate(-443 -88.85)"/>
    <path class="cls-4" d="M705.051,450.83a15.862,15.862,0,0,1,2.45-9.251,7.872,7.872,0,0,1,6.844-3.516,8.339,8.339,0,0,1,3.978.912A8.006,8.006,0,0,1,721.2,441.6l.527-3.1h3.45v23.906q0,4.57-2.659,7.021t-7.668,2.449a16.1,16.1,0,0,1-3.7-.472,14.45,14.45,0,0,1-3.5-1.286l.659-3.361a12.491,12.491,0,0,0,3.021,1.065,15.54,15.54,0,0,0,3.482.407q3.164,0,4.6-1.439a5.967,5.967,0,0,0,1.438-4.384v-2.7a7.662,7.662,0,0,1-2.79,2.263,8.7,8.7,0,0,1-3.758.769,8.127,8.127,0,0,1-6.8-3.152,13.142,13.142,0,0,1-2.45-8.295Zm4.328.461a10.1,10.1,0,0,0,1.473,5.757,5.108,5.108,0,0,0,4.548,2.175,5.719,5.719,0,0,0,3.274-.89,6.748,6.748,0,0,0,2.175-2.516V444.875a6.719,6.719,0,0,0-2.175-2.406,5.712,5.712,0,0,0-3.23-.89,4.928,4.928,0,0,0-4.581,2.571,13.27,13.27,0,0,0-1.483,6.68Z" transform="translate(-443 -88.85)"/>
    <path class="cls-4" d="M735.263,438.5l.308,3.538a8.626,8.626,0,0,1,2.978-2.934,7.948,7.948,0,0,1,4.076-1.044,7.76,7.76,0,0,1,5.954,2.252q2.109,2.253,2.109,6.954v15.008h-4.328v-14.92q0-3.141-1.241-4.46a4.976,4.976,0,0,0-3.791-1.318,6.713,6.713,0,0,0-3.395.8,5.827,5.827,0,0,0-2.208,2.252v17.645H731.4V438.5Z" transform="translate(-443 -88.85)"/>
  </g>
  <ellipse class="cls-4" cx="154" cy="357.65" rx="7" ry="7.5"/>
  <ellipse class="cls-4" cx="325" cy="360.65" rx="7" ry="7.5"/>
</svg>
