<svg xmlns="http://www.w3.org/2000/svg" viewBox="0 0 62.09 52.95"><defs><style>.cls-1{fill:#33173c;}</style></defs><title>menu_hamburguer</title><g id="Camada_2" data-name="Camada 2"><g id="Layer_1" data-name="Layer 1"><g id="Menu"><path class="cls-1" d="M6.21,0H55.88a6.21,6.21,0,0,1,6.21,6.21h0a6.21,6.21,0,0,1-6.21,6.21H6.21A6.21,6.21,0,0,1,0,6.21H0A6.21,6.21,0,0,1,6.21,0Z"/><path class="cls-1" d="M6.21,20.26H55.88a6.21,6.21,0,0,1,6.21,6.21h0a6.21,6.21,0,0,1-6.21,6.21H6.21A6.21,6.21,0,0,1,0,26.47H0A6.21,6.21,0,0,1,6.21,20.26Z"/><path class="cls-1" d="M6.21,40.53H55.88a6.21,6.21,0,0,1,6.21,6.21h0a6.21,6.21,0,0,1-6.21,6.21H6.21A6.21,6.21,0,0,1,0,46.74H0A6.21,6.21,0,0,1,6.21,40.53Z"/></g></g></g></svg>